PathFileType	4	(X/Y/Z)	./resultDataOpenSim/trcMotMarkerGrf/sub06/qtm-03-03.trc
DataRate	CameraRate	NumFrames	NumMarkers	Units	OrigDataRate	OrigDataStartFrame	OrigNumFrames
250.000000	250.000000	10	24	m	250.000000	62	495
Frame#	Time	L.Toe.Tip			R.Toe.Tip			L.Ankle.Lat			R.Ankle.Lat			L.Ankle.Med			R.Ankle.Med			L.Heel			R.Heel			L.Knee.Lat			R.Knee.Lat			L.Knee.Med			R.Knee.Med			L.Thigh.Upper			R.Thigh.Upper			L.ASIS			R.ASIS			V.Sacral			L.Acromium			R.Acromium			C7			L.Elbow			R.Elbow			L.Wrist.Lat			R.Wrist.Lat
		X1	Y1	Z1	X2	Y2	Z2	X3	Y3	Z3	X4	Y4	Z4	X5	Y5	Z5	X6	Y6	Z6	X7	Y7	Z7	X8	Y8	Z8	X9	Y9	Z9	X10	Y10	Z10	X11	Y11	Z11	X12	Y12	Z12	X13	Y13	Z13	X14	Y14	Z14	X15	Y15	Z15	X16	Y16	Z16	X17	Y17	Z17	X18	Y18	Z18	X19	Y19	Z19	X20	Y20	Z20	X21	Y21	Z21	X22	Y22	Z22	X23	Y23	Z23	X24	Y24	Z24

62	0.244	-1.275741	0.082215272	-0.10046386	-0.79068174	0.035377127	0.087458369	-1.284128	0.21190701	-0.12892252	-0.92438669	0.061367612	0.10874736	-1.2670918	0.21708975	-0.047709903	-0.90585109	0.08049843	0.022072176	-1.3351821	0.26552491	-0.081954085	-0.98053023	0.038774616	0.04578856	-0.95378718	0.39050831	-0.15309952	-0.84503711	0.43857567	0.14408368	-0.9477367	0.37333183	-0.032561376	-0.87829803	0.42959723	0.020097754	-1.0054402	0.78092926	-0.13716703	-0.96649304	0.79423823	0.20663937	-0.92445372	0.82827797	-0.1017958	-0.88876285	0.84133494	0.14105903	-1.0891389	0.91664816	0.0442187	-0.95241404	1.3206916	-0.1479609	-0.93345875	1.2990982	0.21364817	-1.01464	1.3551084	0.036079328	-1.0151996	1.0057368	-0.2120893	-1.0406227	0.99995525	0.27367019	-0.8404446	0.82922133	-0.22808307	-0.92444933	0.79341047	0.32019375
63	0.248	-1.2586721	0.082201271	-0.10001057	-0.79076512	0.035388564	0.087531654	-1.2698358	0.21143943	-0.1281	-0.92452724	0.061363695	0.10887825	-1.2525375	0.21696747	-0.047021247	-0.90592051	0.080661912	0.022248833	-1.3217942	0.26409585	-0.081003791	-0.98057837	0.03884992	0.045892942	-0.9413895	0.39318257	-0.1527192	-0.84378356	0.43855429	0.14449221	-0.93535939	0.37622124	-0.031740498	-0.87685452	0.43001604	0.02046381	-0.99891654	0.78316217	-0.13660939	-0.96205318	0.79535055	0.20703369	-0.91826572	0.8304228	-0.10125116	-0.88356886	0.84285466	0.14209807	-1.0831358	0.91848638	0.044421787	-0.94692681	1.322644	-0.14768912	-0.92727437	1.3013394	0.21377315	-1.0087084	1.3569446	0.036353106	-1.0108607	1.0080637	-0.21128143	-1.0334507	1.001582	0.27339294	-0.83766204	0.83023301	-0.22828378	-0.91472723	0.79615791	0.32041711
64	0.252	-1.2414868	0.08200255	-0.099528713	-0.79083302	0.035401163	0.08757258	-1.2554521	0.21077338	-0.12729093	-0.92461875	0.061365535	0.10897193	-1.2377858	0.21659174	-0.046350467	-0.90600323	0.080826026	0.022374791	-1.3083005	0.26239604	-0.080058346	-0.98064286	0.038912564	0.046016647	-0.92903065	0.39595504	-0.15229835	-0.84248618	0.43856717	0.14490601	-0.92281792	0.37916607	-0.031037604	-0.87553745	0.43041364	0.020798278	-0.99243349	0.78542044	-0.13615325	-0.95788799	0.79640242	0.20734965	-0.91206127	0.83257041	-0.10069677	-0.87816539	0.84441069	0.14315425	-1.0772379	0.92024306	0.04457004	-0.94139461	1.3245893	-0.1474204	-0.92106765	1.3035943	0.21387295	-1.0027787	1.3587787	0.036640201	-1.0065219	1.0104191	-0.21041097	-1.026298	1.0032401	0.27318611	-0.83492632	0.83126443	-0.22852057	-0.90500966	0.79894722	0.32058504
65	0.256	-1.2240097	0.081665339	-0.099214632	-0.79089039	0.035413373	0.087585656	-1.240885	0.20992605	-0.12650641	-0.92467306	0.061363853	0.10903518	-1.2229062	0.21597884	-0.045673138	-0.90608304	0.080993628	0.02247543	-1.2947005	0.26040401	-0.079084411	-0.98073024	0.038961708	0.046166079	-0.9167228	0.39882304	-0.15183069	-0.8412151	0.43860648	0.14530657	-0.91010714	0.38217261	-0.030428066	-0.87433261	0.43077509	0.021094402	-0.98602367	0.78771383	-0.13581467	-0.95352948	0.79746179	0.20773475	-0.9058437	0.83471489	-0.10013589	-0.87273491	0.84595789	0.14418172	-1.0715065	0.92191234	0.044904045	-0.93582281	1.326529	-0.14716358	-0.91484093	1.3058485	0.21395248	-0.99685781	1.3606126	0.03694417	-1.0022229	1.0127987	-0.20952571	-1.0190114	1.0049666	0.27339756	-0.83222238	0.83231743	-0.22878654	-0.89524569	0.80176229	0.32069645
66	0.26	-1.2061824	0.081232669	-0.099124963	-0.79093929	0.03542213	0.087577783	-1.2261175	0.20890221	-0.12573635	-0.92471507	0.061338508	0.10907024	-1.2079335	0.21515849	-0.044966822	-0.90613974	0.081170729	0.022582799	-1.2810042	0.25812257	-0.078068155	-0.98083361	0.039019492	0.046335894	-0.90446738	0.40178477	-0.15133058	-0.84006522	0.43865089	0.14564124	-0.89733815	0.38527704	-0.029844832	-0.87326092	0.43109966	0.021337324	-0.97964543	0.79003659	-0.13554928	-0.94864915	0.79860516	0.20825529	-0.89961123	0.83685034	-0.09956844	-0.86721494	0.84751087	0.14517853	-1.0659442	0.92351432	0.045978795	-0.93021993	1.3284548	-0.14692163	-0.90858821	1.3080812	0.21401511	-0.99094234	1.3624362	0.037269668	-0.99797856	1.0151912	-0.20867935	-1.0116057	1.0067653	0.27405611	-0.82954647	0.83338762	-0.22907704	-0.88541519	0.80459564	0.32075504
67	0.264	-1.1880669	0.080715745	-0.099170944	-0.79097913	0.035426038	0.087557291	-1.2111851	0.20770465	-0.12495878	-0.92476965	0.061278506	0.1090811	-1.1929367	0.21414908	-0.044206416	-0.90616992	0.081362285	0.022713034	-1.2672266	0.25557235	-0.077016459	-0.98094127	0.039108972	0.046518155	-0.89225951	0.40482894	-0.15081657	-0.83904937	0.43868566	0.14588724	-0.88460903	0.38850357	-0.029242782	-0.87241916	0.43138702	0.021522808	-0.97312794	0.79234929	-0.13519803	-0.94337536	0.79981882	0.20883627	-0.89335319	0.83897411	-0.098993325	-0.86137111	0.8491366	0.14617181	-1.0604701	0.92508491	0.048006482	-0.9245952	1.3303541	-0.14668664	-0.90229545	1.3102732	0.21406058	-0.98502509	1.3642328	0.037613967	-0.99377881	1.0175854	-0.20790036	-1.0041828	1.008608	0.27496437	-0.82689675	0.83446402	-0.22938857	-0.87553039	0.80744304	0.32076679
68	0.268	-1.1697251	0.080118507	-0.099256141	-0.79101109	0.03542748	0.087533913	-1.1961276	0.20634444	-0.12416846	-0.92483644	0.061203214	0.10908422	-1.1778929	0.21296974	-0.043409098	-0.90618977	0.081567918	0.022862993	-1.253377	0.25276532	-0.075932367	-0.98105472	0.039224759	0.046717515	-0.88010017	0.40793459	-0.15028835	-0.83811477	0.43870967	0.14607714	-0.87197033	0.39185749	-0.028597314	-0.87183475	0.43163493	0.02167608	-0.96627558	0.79459737	-0.13457142	-0.93801609	0.80102624	0.20934317	-0.88706102	0.8410877	-0.098412302	-0.85511452	0.85086733	0.14717289	-1.0549621	0.92665289	0.050295205	-0.91895676	1.3322218	-0.14644464	-0.89596195	1.3124192	0.2140886	-0.9791084	1.3659907	0.037965711	-0.98960612	1.0199731	-0.20718243	-0.99679487	1.0104525	0.27592843	-0.82425508	0.83553878	-0.22970932	-0.86561718	0.81030254	0.32073776
69	0.272	-1.1511668	0.079460106	-0.099341866	-0.79104014	0.035430145	0.08751671	-1.1809681	0.20483324	-0.12336926	-0.92489195	0.061149599	0.10910298	-1.1625799	0.21167544	-0.042664585	-0.90621992	0.081782887	0.023023611	-1.2394431	0.24969271	-0.074832567	-0.98119391	0.039337769	0.046961139	-0.86800905	0.41107888	-0.14972706	-0.83723298	0.43873271	0.14625024	-0.8594535	0.39532587	-0.02789602	-0.87141884	0.43183551	0.021831577	-0.95911665	0.79676447	-0.13367543	-0.93270992	0.80217563	0.20970457	-0.8807474	0.8431946	-0.097828908	-0.8487064	0.85264218	0.14814519	-1.0493237	0.92821568	0.051891672	-0.91330973	1.3340566	-0.14618715	-0.88962115	1.3145329	0.21410525	-0.97320586	1.3677033	0.038312604	-0.9854463	1.0223466	-0.20650282	-0.98941888	1.0122595	0.27684414	-0.82157618	0.83661454	-0.23000758	-0.8556989	0.81317426	0.32067488
70	0.276	-1.1323852	0.078768947	-0.099421531	-0.79107287	0.035433729	0.087511776	-1.1657096	0.20317503	-0.12254748	-0.92491827	0.061141886	0.10915478	-1.1468302	0.21033187	-0.042050627	-0.90626881	0.082000981	0.023190138	-1.2253832	0.24633403	-0.073781246	-0.98137265	0.03943071	0.047270973	-0.85602569	0.41424602	-0.14911798	-0.83640677	0.4387694	0.14642026	-0.84709546	0.39888266	-0.027140765	-0.87106802	0.43197387	0.021992961	-0.95195264	0.79888882	-0.1327865	-0.92742258	0.80326665	0.2099489	-0.87444932	0.84529166	-0.097241855	-0.8425749	0.85435567	0.14902174	-1.0435453	0.92975437	0.052564261	-0.90765599	1.3358528	-0.1459188	-0.88331587	1.316628	0.21412244	-0.96732908	1.3693628	0.038648174	-0.98128936	1.0247007	-0.20583951	-0.98200694	1.014008	0.27767796	-0.8187982	0.83770143	-0.23023754	-0.84578695	0.81605438	0.32058279
71	0.28	-1.1133826	0.078070003	-0.099492224	-0.79111813	0.035430404	0.087523103	-1.1503399	0.20136972	-0.12168942	-0.92491459	0.061185876	0.10925023	-1.1308759	0.20891333	-0.041489195	-0.90632766	0.082215896	0.023360363	-1.2111583	0.24267259	-0.072834065	-0.98154714	0.039535146	0.047579691	-0.84418415	0.41742881	-0.14846456	-0.83561303	0.43882893	0.14660856	-0.8349391	0.40249908	-0.026345443	-0.87069759	0.43204576	0.022131031	-0.94503363	0.80101449	-0.13221172	-0.92212426	0.80432052	0.21013494	-0.86820195	0.84736439	-0.096644287	-0.83693006	0.85595109	0.14976472	-1.0376825	0.93128889	0.052746365	-0.90199622	1.337603	-0.14564966	-0.87705542	1.3186966	0.21415006	-0.96147574	1.3709637	0.038972463	-0.97712827	1.0270299	-0.2051776	-0.97453329	1.0156996	0.27843667	-0.81590805	0.83879837	-0.23038536	-0.83587979	0.81893352	0.32046146
